<mxfile host="Electron" modified="2023-07-25T18:50:05.766Z" agent="Mozilla/5.0 (Windows NT 10.0; Win64; x64) AppleWebKit/537.36 (KHTML, like Gecko) draw.io/21.6.5 Chrome/114.0.5735.243 Electron/25.3.1 Safari/537.36" etag="HplwzXcQ0-mcCWbbyrIn" version="21.6.5" type="device">
  <diagram id="VHeERlMaVpqeKtiM4jGf" name="Страница 1">
    <mxGraphModel dx="2960" dy="1731" grid="0" gridSize="10" guides="1" tooltips="1" connect="1" arrows="1" fold="1" page="1" pageScale="1" pageWidth="1169" pageHeight="827" math="0" shadow="0">
      <root>
        <mxCell id="0" />
        <mxCell id="1" parent="0" />
        <mxCell id="W9cvc5h1bgyLC_LHg4Ax-19" value="" style="group" parent="1" vertex="1" connectable="0">
          <mxGeometry x="760" y="137" width="220" height="150" as="geometry" />
        </mxCell>
        <mxCell id="W9cvc5h1bgyLC_LHg4Ax-9" value="" style="rounded=1;whiteSpace=wrap;html=1;strokeWidth=1;perimeterSpacing=0;fillColor=none;container=0;" parent="W9cvc5h1bgyLC_LHg4Ax-19" vertex="1">
          <mxGeometry width="220" height="150" as="geometry" />
        </mxCell>
        <mxCell id="W9cvc5h1bgyLC_LHg4Ax-10" value="" style="endArrow=none;html=1;rounded=0;" parent="W9cvc5h1bgyLC_LHg4Ax-19" edge="1">
          <mxGeometry width="50" height="50" relative="1" as="geometry">
            <mxPoint y="37.5" as="sourcePoint" />
            <mxPoint x="220" y="37.5" as="targetPoint" />
          </mxGeometry>
        </mxCell>
        <mxCell id="W9cvc5h1bgyLC_LHg4Ax-12" value="" style="endArrow=none;html=1;rounded=0;" parent="W9cvc5h1bgyLC_LHg4Ax-19" edge="1">
          <mxGeometry width="50" height="50" relative="1" as="geometry">
            <mxPoint y="112.5" as="sourcePoint" />
            <mxPoint x="220" y="112.5" as="targetPoint" />
          </mxGeometry>
        </mxCell>
        <mxCell id="W9cvc5h1bgyLC_LHg4Ax-16" value="Главное меню" style="text;html=1;strokeColor=none;fillColor=none;align=center;verticalAlign=middle;whiteSpace=wrap;rounded=0;strokeWidth=1;fontSize=24;" parent="W9cvc5h1bgyLC_LHg4Ax-19" vertex="1">
          <mxGeometry y="37.5" width="220" height="75" as="geometry" />
        </mxCell>
        <mxCell id="W9cvc5h1bgyLC_LHg4Ax-17" value="0" style="text;html=1;strokeColor=none;fillColor=none;align=center;verticalAlign=middle;whiteSpace=wrap;rounded=0;strokeWidth=1;fontSize=20;" parent="W9cvc5h1bgyLC_LHg4Ax-19" vertex="1">
          <mxGeometry x="18.333333333333336" width="183.33333333333331" height="37.5" as="geometry" />
        </mxCell>
        <mxCell id="W9cvc5h1bgyLC_LHg4Ax-18" value="1, 2, 3, 4, 5, 6" style="text;html=1;strokeColor=none;fillColor=none;align=center;verticalAlign=middle;whiteSpace=wrap;rounded=0;strokeWidth=1;fontSize=20;" parent="W9cvc5h1bgyLC_LHg4Ax-19" vertex="1">
          <mxGeometry x="18.333333333333336" y="112.5" width="183.33333333333331" height="37.5" as="geometry" />
        </mxCell>
        <mxCell id="W9cvc5h1bgyLC_LHg4Ax-20" value="" style="group" parent="1" vertex="1" connectable="0">
          <mxGeometry x="240" y="480" width="240" height="150" as="geometry" />
        </mxCell>
        <mxCell id="W9cvc5h1bgyLC_LHg4Ax-21" value="" style="rounded=1;whiteSpace=wrap;html=1;strokeWidth=1;perimeterSpacing=0;fillColor=none;container=0;" parent="W9cvc5h1bgyLC_LHg4Ax-20" vertex="1">
          <mxGeometry width="239.99999999999997" height="150" as="geometry" />
        </mxCell>
        <mxCell id="W9cvc5h1bgyLC_LHg4Ax-24" value="Вход в приложение" style="text;html=1;strokeColor=none;fillColor=none;align=center;verticalAlign=middle;whiteSpace=wrap;rounded=0;strokeWidth=1;fontSize=22;" parent="W9cvc5h1bgyLC_LHg4Ax-20" vertex="1">
          <mxGeometry y="37.5" width="239.99999999999997" height="112.5" as="geometry" />
        </mxCell>
        <mxCell id="W9cvc5h1bgyLC_LHg4Ax-22" value="" style="endArrow=none;html=1;rounded=0;" parent="W9cvc5h1bgyLC_LHg4Ax-20" edge="1">
          <mxGeometry width="50" height="50" relative="1" as="geometry">
            <mxPoint y="37.5" as="sourcePoint" />
            <mxPoint x="239.99999999999997" y="37.5" as="targetPoint" />
          </mxGeometry>
        </mxCell>
        <mxCell id="W9cvc5h1bgyLC_LHg4Ax-25" value="1" style="text;html=1;strokeColor=none;fillColor=none;align=center;verticalAlign=middle;whiteSpace=wrap;rounded=0;strokeWidth=1;fontSize=20;" parent="W9cvc5h1bgyLC_LHg4Ax-20" vertex="1">
          <mxGeometry x="20" width="199.99999999999997" height="37.5" as="geometry" />
        </mxCell>
        <mxCell id="W9cvc5h1bgyLC_LHg4Ax-27" value="" style="group" parent="1" vertex="1" connectable="0">
          <mxGeometry x="360" y="680" width="240" height="150" as="geometry" />
        </mxCell>
        <mxCell id="W9cvc5h1bgyLC_LHg4Ax-28" value="" style="rounded=1;whiteSpace=wrap;html=1;strokeWidth=1;perimeterSpacing=0;fillColor=none;container=0;" parent="W9cvc5h1bgyLC_LHg4Ax-27" vertex="1">
          <mxGeometry width="239.99999999999997" height="150" as="geometry" />
        </mxCell>
        <mxCell id="W9cvc5h1bgyLC_LHg4Ax-29" value="Внести регистрационные данные пользователя" style="text;html=1;strokeColor=none;fillColor=none;align=center;verticalAlign=middle;whiteSpace=wrap;rounded=0;strokeWidth=1;fontSize=22;" parent="W9cvc5h1bgyLC_LHg4Ax-27" vertex="1">
          <mxGeometry y="37.5" width="239.99999999999997" height="112.5" as="geometry" />
        </mxCell>
        <mxCell id="W9cvc5h1bgyLC_LHg4Ax-30" value="" style="endArrow=none;html=1;rounded=0;" parent="W9cvc5h1bgyLC_LHg4Ax-27" edge="1">
          <mxGeometry width="50" height="50" relative="1" as="geometry">
            <mxPoint y="37.5" as="sourcePoint" />
            <mxPoint x="239.99999999999997" y="37.5" as="targetPoint" />
          </mxGeometry>
        </mxCell>
        <mxCell id="W9cvc5h1bgyLC_LHg4Ax-31" value="6" style="text;html=1;strokeColor=none;fillColor=none;align=center;verticalAlign=middle;whiteSpace=wrap;rounded=0;strokeWidth=1;fontSize=20;" parent="W9cvc5h1bgyLC_LHg4Ax-27" vertex="1">
          <mxGeometry x="20" width="199.99999999999997" height="37.5" as="geometry" />
        </mxCell>
        <mxCell id="W9cvc5h1bgyLC_LHg4Ax-32" value="" style="endArrow=none;html=1;rounded=0;fontSize=20;exitX=-0.005;exitY=0.286;exitDx=0;exitDy=0;exitPerimeter=0;" parent="1" source="W9cvc5h1bgyLC_LHg4Ax-29" edge="1">
          <mxGeometry width="50" height="50" relative="1" as="geometry">
            <mxPoint x="220" y="750" as="sourcePoint" />
            <mxPoint x="320" y="630" as="targetPoint" />
            <Array as="points">
              <mxPoint x="320" y="750" />
            </Array>
          </mxGeometry>
        </mxCell>
        <mxCell id="W9cvc5h1bgyLC_LHg4Ax-33" value="" style="group" parent="1" vertex="1" connectable="0">
          <mxGeometry x="360" y="870" width="240" height="150" as="geometry" />
        </mxCell>
        <mxCell id="W9cvc5h1bgyLC_LHg4Ax-34" value="" style="rounded=1;whiteSpace=wrap;html=1;strokeWidth=1;perimeterSpacing=0;fillColor=none;container=0;" parent="W9cvc5h1bgyLC_LHg4Ax-33" vertex="1">
          <mxGeometry width="239.99999999999997" height="150" as="geometry" />
        </mxCell>
        <mxCell id="W9cvc5h1bgyLC_LHg4Ax-35" value="Внести данные авторизации" style="text;html=1;strokeColor=none;fillColor=none;align=center;verticalAlign=middle;whiteSpace=wrap;rounded=0;strokeWidth=1;fontSize=22;" parent="W9cvc5h1bgyLC_LHg4Ax-33" vertex="1">
          <mxGeometry y="37.5" width="239.99999999999997" height="112.5" as="geometry" />
        </mxCell>
        <mxCell id="W9cvc5h1bgyLC_LHg4Ax-36" value="" style="endArrow=none;html=1;rounded=0;" parent="W9cvc5h1bgyLC_LHg4Ax-33" edge="1">
          <mxGeometry width="50" height="50" relative="1" as="geometry">
            <mxPoint y="37.5" as="sourcePoint" />
            <mxPoint x="239.99999999999997" y="37.5" as="targetPoint" />
          </mxGeometry>
        </mxCell>
        <mxCell id="W9cvc5h1bgyLC_LHg4Ax-37" value="7" style="text;html=1;strokeColor=none;fillColor=none;align=center;verticalAlign=middle;whiteSpace=wrap;rounded=0;strokeWidth=1;fontSize=20;" parent="W9cvc5h1bgyLC_LHg4Ax-33" vertex="1">
          <mxGeometry x="20" width="199.99999999999997" height="37.5" as="geometry" />
        </mxCell>
        <mxCell id="W9cvc5h1bgyLC_LHg4Ax-38" value="" style="endArrow=none;html=1;rounded=0;fontSize=20;exitX=0;exitY=0.5;exitDx=0;exitDy=0;" parent="1" source="W9cvc5h1bgyLC_LHg4Ax-35" edge="1">
          <mxGeometry width="50" height="50" relative="1" as="geometry">
            <mxPoint x="240" y="860" as="sourcePoint" />
            <mxPoint x="320" y="750" as="targetPoint" />
            <Array as="points">
              <mxPoint x="320" y="964" />
            </Array>
          </mxGeometry>
        </mxCell>
        <mxCell id="W9cvc5h1bgyLC_LHg4Ax-39" value="" style="group" parent="1" vertex="1" connectable="0">
          <mxGeometry x="750" y="480" width="240" height="150" as="geometry" />
        </mxCell>
        <mxCell id="W9cvc5h1bgyLC_LHg4Ax-40" value="" style="rounded=1;whiteSpace=wrap;html=1;strokeWidth=1;perimeterSpacing=0;fillColor=none;container=0;" parent="W9cvc5h1bgyLC_LHg4Ax-39" vertex="1">
          <mxGeometry width="239.99999999999997" height="150" as="geometry" />
        </mxCell>
        <mxCell id="W9cvc5h1bgyLC_LHg4Ax-41" value="Управление профилем дома" style="text;html=1;strokeColor=none;fillColor=none;align=center;verticalAlign=middle;whiteSpace=wrap;rounded=0;strokeWidth=1;fontSize=22;" parent="W9cvc5h1bgyLC_LHg4Ax-39" vertex="1">
          <mxGeometry y="37.5" width="239.99999999999997" height="112.5" as="geometry" />
        </mxCell>
        <mxCell id="W9cvc5h1bgyLC_LHg4Ax-42" value="" style="endArrow=none;html=1;rounded=0;" parent="W9cvc5h1bgyLC_LHg4Ax-39" edge="1">
          <mxGeometry width="50" height="50" relative="1" as="geometry">
            <mxPoint y="37.5" as="sourcePoint" />
            <mxPoint x="239.99999999999997" y="37.5" as="targetPoint" />
          </mxGeometry>
        </mxCell>
        <mxCell id="W9cvc5h1bgyLC_LHg4Ax-43" value="2" style="text;html=1;strokeColor=none;fillColor=none;align=center;verticalAlign=middle;whiteSpace=wrap;rounded=0;strokeWidth=1;fontSize=20;" parent="W9cvc5h1bgyLC_LHg4Ax-39" vertex="1">
          <mxGeometry x="20" width="199.99999999999997" height="37.5" as="geometry" />
        </mxCell>
        <mxCell id="W9cvc5h1bgyLC_LHg4Ax-44" value="" style="group" parent="1" vertex="1" connectable="0">
          <mxGeometry x="870" y="680" width="240" height="150" as="geometry" />
        </mxCell>
        <mxCell id="W9cvc5h1bgyLC_LHg4Ax-45" value="" style="rounded=1;whiteSpace=wrap;html=1;strokeWidth=1;perimeterSpacing=0;fillColor=none;container=0;" parent="W9cvc5h1bgyLC_LHg4Ax-44" vertex="1">
          <mxGeometry width="239.99999999999997" height="150" as="geometry" />
        </mxCell>
        <mxCell id="W9cvc5h1bgyLC_LHg4Ax-46" value="ввести данные профиля дома" style="text;html=1;strokeColor=none;fillColor=none;align=center;verticalAlign=middle;whiteSpace=wrap;rounded=0;strokeWidth=1;fontSize=22;" parent="W9cvc5h1bgyLC_LHg4Ax-44" vertex="1">
          <mxGeometry y="37.5" width="239.99999999999997" height="112.5" as="geometry" />
        </mxCell>
        <mxCell id="W9cvc5h1bgyLC_LHg4Ax-47" value="" style="endArrow=none;html=1;rounded=0;" parent="W9cvc5h1bgyLC_LHg4Ax-44" edge="1">
          <mxGeometry width="50" height="50" relative="1" as="geometry">
            <mxPoint y="37.5" as="sourcePoint" />
            <mxPoint x="239.99999999999997" y="37.5" as="targetPoint" />
          </mxGeometry>
        </mxCell>
        <mxCell id="W9cvc5h1bgyLC_LHg4Ax-48" value="9" style="text;html=1;strokeColor=none;fillColor=none;align=center;verticalAlign=middle;whiteSpace=wrap;rounded=0;strokeWidth=1;fontSize=20;" parent="W9cvc5h1bgyLC_LHg4Ax-44" vertex="1">
          <mxGeometry x="20" width="199.99999999999997" height="37.5" as="geometry" />
        </mxCell>
        <mxCell id="W9cvc5h1bgyLC_LHg4Ax-49" value="" style="endArrow=none;html=1;rounded=0;fontSize=20;exitX=-0.005;exitY=0.286;exitDx=0;exitDy=0;exitPerimeter=0;" parent="1" source="W9cvc5h1bgyLC_LHg4Ax-46" edge="1">
          <mxGeometry width="50" height="50" relative="1" as="geometry">
            <mxPoint x="730" y="750" as="sourcePoint" />
            <mxPoint x="830.0000000000002" y="630" as="targetPoint" />
            <Array as="points">
              <mxPoint x="830" y="750" />
            </Array>
          </mxGeometry>
        </mxCell>
        <mxCell id="W9cvc5h1bgyLC_LHg4Ax-55" value="" style="endArrow=none;html=1;rounded=0;fontSize=20;exitX=0;exitY=0.5;exitDx=0;exitDy=0;" parent="1" edge="1">
          <mxGeometry width="50" height="50" relative="1" as="geometry">
            <mxPoint x="870" y="963.75" as="sourcePoint" />
            <mxPoint x="830.0000000000002" y="750" as="targetPoint" />
            <Array as="points">
              <mxPoint x="830" y="964" />
            </Array>
          </mxGeometry>
        </mxCell>
        <mxCell id="W9cvc5h1bgyLC_LHg4Ax-56" value="" style="group" parent="1" vertex="1" connectable="0">
          <mxGeometry x="360" y="1070" width="240" height="150" as="geometry" />
        </mxCell>
        <mxCell id="W9cvc5h1bgyLC_LHg4Ax-57" value="" style="rounded=1;whiteSpace=wrap;html=1;strokeWidth=1;perimeterSpacing=0;fillColor=none;container=0;" parent="W9cvc5h1bgyLC_LHg4Ax-56" vertex="1">
          <mxGeometry width="239.99999999999997" height="150" as="geometry" />
        </mxCell>
        <mxCell id="W9cvc5h1bgyLC_LHg4Ax-58" value="Ввести новый пароль для восстановления&amp;nbsp;&lt;br style=&quot;font-size: 22px;&quot;&gt;доступа" style="text;html=1;strokeColor=none;fillColor=none;align=center;verticalAlign=middle;whiteSpace=wrap;rounded=0;strokeWidth=1;fontSize=22;" parent="W9cvc5h1bgyLC_LHg4Ax-56" vertex="1">
          <mxGeometry y="37.5" width="239.99999999999997" height="112.5" as="geometry" />
        </mxCell>
        <mxCell id="W9cvc5h1bgyLC_LHg4Ax-59" value="" style="endArrow=none;html=1;rounded=0;" parent="W9cvc5h1bgyLC_LHg4Ax-56" edge="1">
          <mxGeometry width="50" height="50" relative="1" as="geometry">
            <mxPoint y="37.5" as="sourcePoint" />
            <mxPoint x="239.99999999999997" y="37.5" as="targetPoint" />
          </mxGeometry>
        </mxCell>
        <mxCell id="W9cvc5h1bgyLC_LHg4Ax-60" value="8" style="text;html=1;strokeColor=none;fillColor=none;align=center;verticalAlign=middle;whiteSpace=wrap;rounded=0;strokeWidth=1;fontSize=20;" parent="W9cvc5h1bgyLC_LHg4Ax-56" vertex="1">
          <mxGeometry x="20" width="199.99999999999997" height="37.5" as="geometry" />
        </mxCell>
        <mxCell id="W9cvc5h1bgyLC_LHg4Ax-61" value="" style="endArrow=none;html=1;rounded=0;fontSize=20;exitX=0;exitY=0.25;exitDx=0;exitDy=0;" parent="1" source="W9cvc5h1bgyLC_LHg4Ax-58" edge="1">
          <mxGeometry width="50" height="50" relative="1" as="geometry">
            <mxPoint x="190" y="1090" as="sourcePoint" />
            <mxPoint x="320" y="964" as="targetPoint" />
            <Array as="points">
              <mxPoint x="320" y="1136" />
            </Array>
          </mxGeometry>
        </mxCell>
        <mxCell id="W9cvc5h1bgyLC_LHg4Ax-74" value="" style="group" parent="1" vertex="1" connectable="0">
          <mxGeometry x="1281" y="478" width="240" height="150" as="geometry" />
        </mxCell>
        <mxCell id="W9cvc5h1bgyLC_LHg4Ax-75" value="" style="rounded=1;whiteSpace=wrap;html=1;strokeWidth=1;perimeterSpacing=0;fillColor=none;container=0;" parent="W9cvc5h1bgyLC_LHg4Ax-74" vertex="1">
          <mxGeometry width="239.99999999999997" height="150" as="geometry" />
        </mxCell>
        <mxCell id="W9cvc5h1bgyLC_LHg4Ax-76" value="Управление&amp;nbsp;&lt;br&gt;устройством" style="text;html=1;strokeColor=none;fillColor=none;align=center;verticalAlign=middle;whiteSpace=wrap;rounded=0;strokeWidth=1;fontSize=22;" parent="W9cvc5h1bgyLC_LHg4Ax-74" vertex="1">
          <mxGeometry y="37.5" width="239.99999999999997" height="112.5" as="geometry" />
        </mxCell>
        <mxCell id="W9cvc5h1bgyLC_LHg4Ax-77" value="" style="endArrow=none;html=1;rounded=0;" parent="W9cvc5h1bgyLC_LHg4Ax-74" edge="1">
          <mxGeometry width="50" height="50" relative="1" as="geometry">
            <mxPoint y="37.5" as="sourcePoint" />
            <mxPoint x="239.99999999999997" y="37.5" as="targetPoint" />
          </mxGeometry>
        </mxCell>
        <mxCell id="W9cvc5h1bgyLC_LHg4Ax-78" value="3" style="text;html=1;strokeColor=none;fillColor=none;align=center;verticalAlign=middle;whiteSpace=wrap;rounded=0;strokeWidth=1;fontSize=20;" parent="W9cvc5h1bgyLC_LHg4Ax-74" vertex="1">
          <mxGeometry x="20" width="199.99999999999997" height="37.5" as="geometry" />
        </mxCell>
        <mxCell id="W9cvc5h1bgyLC_LHg4Ax-79" value="" style="group" parent="1" vertex="1" connectable="0">
          <mxGeometry x="1401" y="678" width="240" height="150" as="geometry" />
        </mxCell>
        <mxCell id="W9cvc5h1bgyLC_LHg4Ax-80" value="" style="rounded=1;whiteSpace=wrap;html=1;strokeWidth=1;perimeterSpacing=0;fillColor=none;container=0;" parent="W9cvc5h1bgyLC_LHg4Ax-79" vertex="1">
          <mxGeometry width="239.99999999999997" height="150" as="geometry" />
        </mxCell>
        <mxCell id="W9cvc5h1bgyLC_LHg4Ax-81" value="изменить статус устройства" style="text;html=1;strokeColor=none;fillColor=none;align=center;verticalAlign=middle;whiteSpace=wrap;rounded=0;strokeWidth=1;fontSize=22;" parent="W9cvc5h1bgyLC_LHg4Ax-79" vertex="1">
          <mxGeometry y="37.5" width="239.99999999999997" height="112.5" as="geometry" />
        </mxCell>
        <mxCell id="W9cvc5h1bgyLC_LHg4Ax-82" value="" style="endArrow=none;html=1;rounded=0;" parent="W9cvc5h1bgyLC_LHg4Ax-79" edge="1">
          <mxGeometry width="50" height="50" relative="1" as="geometry">
            <mxPoint y="37.5" as="sourcePoint" />
            <mxPoint x="239.99999999999997" y="37.5" as="targetPoint" />
          </mxGeometry>
        </mxCell>
        <mxCell id="W9cvc5h1bgyLC_LHg4Ax-83" value="11" style="text;html=1;strokeColor=none;fillColor=none;align=center;verticalAlign=middle;whiteSpace=wrap;rounded=0;strokeWidth=1;fontSize=20;" parent="W9cvc5h1bgyLC_LHg4Ax-79" vertex="1">
          <mxGeometry x="20" width="199.99999999999997" height="37.5" as="geometry" />
        </mxCell>
        <mxCell id="W9cvc5h1bgyLC_LHg4Ax-84" value="" style="endArrow=none;html=1;rounded=0;fontSize=20;exitX=-0.005;exitY=0.286;exitDx=0;exitDy=0;exitPerimeter=0;" parent="1" source="W9cvc5h1bgyLC_LHg4Ax-81" edge="1">
          <mxGeometry width="50" height="50" relative="1" as="geometry">
            <mxPoint x="1261" y="748" as="sourcePoint" />
            <mxPoint x="1361" y="628" as="targetPoint" />
            <Array as="points">
              <mxPoint x="1361" y="748" />
            </Array>
          </mxGeometry>
        </mxCell>
        <mxCell id="W9cvc5h1bgyLC_LHg4Ax-90" value="" style="endArrow=none;html=1;rounded=0;fontSize=20;exitX=0;exitY=0.5;exitDx=0;exitDy=0;" parent="1" edge="1">
          <mxGeometry width="50" height="50" relative="1" as="geometry">
            <mxPoint x="1401" y="961.75" as="sourcePoint" />
            <mxPoint x="1361" y="748" as="targetPoint" />
            <Array as="points">
              <mxPoint x="1361" y="962" />
            </Array>
          </mxGeometry>
        </mxCell>
        <mxCell id="W9cvc5h1bgyLC_LHg4Ax-132" value="" style="endArrow=none;html=1;rounded=0;fontSize=22;entryX=0.5;entryY=1;entryDx=0;entryDy=0;exitX=0.5;exitY=0;exitDx=0;exitDy=0;" parent="1" source="W9cvc5h1bgyLC_LHg4Ax-43" target="W9cvc5h1bgyLC_LHg4Ax-18" edge="1">
          <mxGeometry width="50" height="50" relative="1" as="geometry">
            <mxPoint x="834" y="375" as="sourcePoint" />
            <mxPoint x="884" y="325" as="targetPoint" />
          </mxGeometry>
        </mxCell>
        <mxCell id="W9cvc5h1bgyLC_LHg4Ax-133" value="" style="endArrow=none;html=1;rounded=0;fontSize=22;entryX=0.5;entryY=0;entryDx=0;entryDy=0;exitX=0.5;exitY=1;exitDx=0;exitDy=0;" parent="1" source="W9cvc5h1bgyLC_LHg4Ax-18" target="W9cvc5h1bgyLC_LHg4Ax-78" edge="1">
          <mxGeometry width="50" height="50" relative="1" as="geometry">
            <mxPoint x="1079" y="380" as="sourcePoint" />
            <mxPoint x="1129" y="330" as="targetPoint" />
            <Array as="points">
              <mxPoint x="1401" y="400" />
            </Array>
          </mxGeometry>
        </mxCell>
        <mxCell id="W9cvc5h1bgyLC_LHg4Ax-134" value="" style="endArrow=none;html=1;rounded=0;fontSize=22;exitX=0.5;exitY=0;exitDx=0;exitDy=0;entryX=0.5;entryY=1;entryDx=0;entryDy=0;" parent="1" source="W9cvc5h1bgyLC_LHg4Ax-25" target="W9cvc5h1bgyLC_LHg4Ax-18" edge="1">
          <mxGeometry width="50" height="50" relative="1" as="geometry">
            <mxPoint x="525" y="435" as="sourcePoint" />
            <mxPoint x="575" y="385" as="targetPoint" />
            <Array as="points">
              <mxPoint x="360" y="400" />
            </Array>
          </mxGeometry>
        </mxCell>
        <mxCell id="5_HbVF1pgU51whAzFdLB-8" value="" style="group" parent="1" vertex="1" connectable="0">
          <mxGeometry x="1816" y="478" width="240" height="150" as="geometry" />
        </mxCell>
        <mxCell id="5_HbVF1pgU51whAzFdLB-9" value="" style="rounded=1;whiteSpace=wrap;html=1;strokeWidth=1;perimeterSpacing=0;fillColor=none;container=0;" parent="5_HbVF1pgU51whAzFdLB-8" vertex="1">
          <mxGeometry width="239.99999999999997" height="150" as="geometry" />
        </mxCell>
        <mxCell id="5_HbVF1pgU51whAzFdLB-10" value="Управление&amp;nbsp;&lt;br&gt;комнатой" style="text;html=1;strokeColor=none;fillColor=none;align=center;verticalAlign=middle;whiteSpace=wrap;rounded=0;strokeWidth=1;fontSize=22;" parent="5_HbVF1pgU51whAzFdLB-8" vertex="1">
          <mxGeometry y="37.5" width="239.99999999999997" height="112.5" as="geometry" />
        </mxCell>
        <mxCell id="5_HbVF1pgU51whAzFdLB-11" value="" style="endArrow=none;html=1;rounded=0;" parent="5_HbVF1pgU51whAzFdLB-8" edge="1">
          <mxGeometry width="50" height="50" relative="1" as="geometry">
            <mxPoint y="37.5" as="sourcePoint" />
            <mxPoint x="239.99999999999997" y="37.5" as="targetPoint" />
          </mxGeometry>
        </mxCell>
        <mxCell id="5_HbVF1pgU51whAzFdLB-12" value="4" style="text;html=1;strokeColor=none;fillColor=none;align=center;verticalAlign=middle;whiteSpace=wrap;rounded=0;strokeWidth=1;fontSize=20;" parent="5_HbVF1pgU51whAzFdLB-8" vertex="1">
          <mxGeometry x="20" width="199.99999999999997" height="37.5" as="geometry" />
        </mxCell>
        <mxCell id="5_HbVF1pgU51whAzFdLB-18" value="" style="endArrow=none;html=1;rounded=0;fontSize=20;exitX=0;exitY=0.367;exitDx=0;exitDy=0;exitPerimeter=0;" parent="1" source="5_HbVF1pgU51whAzFdLB-61" edge="1">
          <mxGeometry width="50" height="50" relative="1" as="geometry">
            <mxPoint x="1934.7999999999997" y="747.675" as="sourcePoint" />
            <mxPoint x="1896" y="628" as="targetPoint" />
            <Array as="points">
              <mxPoint x="1896" y="748" />
            </Array>
          </mxGeometry>
        </mxCell>
        <mxCell id="5_HbVF1pgU51whAzFdLB-19" value="" style="group" parent="1" vertex="1" connectable="0">
          <mxGeometry x="1936" y="868" width="240" height="150" as="geometry" />
        </mxCell>
        <mxCell id="5_HbVF1pgU51whAzFdLB-20" value="" style="rounded=1;whiteSpace=wrap;html=1;strokeWidth=1;perimeterSpacing=0;fillColor=none;container=0;" parent="5_HbVF1pgU51whAzFdLB-19" vertex="1">
          <mxGeometry width="239.99999999999997" height="150" as="geometry" />
        </mxCell>
        <mxCell id="5_HbVF1pgU51whAzFdLB-21" value="изменить статус устройств комнаты" style="text;html=1;strokeColor=none;fillColor=none;align=center;verticalAlign=middle;whiteSpace=wrap;rounded=0;strokeWidth=1;fontSize=22;" parent="5_HbVF1pgU51whAzFdLB-19" vertex="1">
          <mxGeometry y="37.5" width="239.99999999999997" height="112.5" as="geometry" />
        </mxCell>
        <mxCell id="5_HbVF1pgU51whAzFdLB-22" value="" style="endArrow=none;html=1;rounded=0;" parent="5_HbVF1pgU51whAzFdLB-19" edge="1">
          <mxGeometry width="50" height="50" relative="1" as="geometry">
            <mxPoint y="37.5" as="sourcePoint" />
            <mxPoint x="239.99999999999997" y="37.5" as="targetPoint" />
          </mxGeometry>
        </mxCell>
        <mxCell id="5_HbVF1pgU51whAzFdLB-23" value="14" style="text;html=1;strokeColor=none;fillColor=none;align=center;verticalAlign=middle;whiteSpace=wrap;rounded=0;strokeWidth=1;fontSize=20;" parent="5_HbVF1pgU51whAzFdLB-19" vertex="1">
          <mxGeometry x="20" width="199.99999999999997" height="37.5" as="geometry" />
        </mxCell>
        <mxCell id="5_HbVF1pgU51whAzFdLB-24" value="" style="endArrow=none;html=1;rounded=0;fontSize=20;exitX=0;exitY=0.5;exitDx=0;exitDy=0;" parent="1" source="5_HbVF1pgU51whAzFdLB-21" edge="1">
          <mxGeometry width="50" height="50" relative="1" as="geometry">
            <mxPoint x="1816" y="858" as="sourcePoint" />
            <mxPoint x="1896" y="748" as="targetPoint" />
            <Array as="points">
              <mxPoint x="1896" y="962" />
            </Array>
          </mxGeometry>
        </mxCell>
        <mxCell id="5_HbVF1pgU51whAzFdLB-31" value="" style="group" parent="1" vertex="1" connectable="0">
          <mxGeometry x="2329" y="478" width="240" height="150" as="geometry" />
        </mxCell>
        <mxCell id="5_HbVF1pgU51whAzFdLB-32" value="" style="rounded=1;whiteSpace=wrap;html=1;strokeWidth=1;perimeterSpacing=0;fillColor=none;container=0;" parent="5_HbVF1pgU51whAzFdLB-31" vertex="1">
          <mxGeometry width="239.99999999999997" height="150" as="geometry" />
        </mxCell>
        <mxCell id="5_HbVF1pgU51whAzFdLB-33" value="Управление&amp;nbsp;&lt;br&gt;сценарием" style="text;html=1;strokeColor=none;fillColor=none;align=center;verticalAlign=middle;whiteSpace=wrap;rounded=0;strokeWidth=1;fontSize=22;" parent="5_HbVF1pgU51whAzFdLB-31" vertex="1">
          <mxGeometry y="37.5" width="239.99999999999997" height="112.5" as="geometry" />
        </mxCell>
        <mxCell id="5_HbVF1pgU51whAzFdLB-34" value="" style="endArrow=none;html=1;rounded=0;" parent="5_HbVF1pgU51whAzFdLB-31" edge="1">
          <mxGeometry width="50" height="50" relative="1" as="geometry">
            <mxPoint y="37.5" as="sourcePoint" />
            <mxPoint x="239.99999999999997" y="37.5" as="targetPoint" />
          </mxGeometry>
        </mxCell>
        <mxCell id="5_HbVF1pgU51whAzFdLB-35" value="5" style="text;html=1;strokeColor=none;fillColor=none;align=center;verticalAlign=middle;whiteSpace=wrap;rounded=0;strokeWidth=1;fontSize=20;" parent="5_HbVF1pgU51whAzFdLB-31" vertex="1">
          <mxGeometry x="20" width="199.99999999999997" height="37.5" as="geometry" />
        </mxCell>
        <mxCell id="5_HbVF1pgU51whAzFdLB-41" value="" style="endArrow=none;html=1;rounded=0;fontSize=20;exitX=0;exitY=0.331;exitDx=0;exitDy=0;exitPerimeter=0;" parent="1" source="5_HbVF1pgU51whAzFdLB-66" edge="1">
          <mxGeometry width="50" height="50" relative="1" as="geometry">
            <mxPoint x="2447.8" y="747.675" as="sourcePoint" />
            <mxPoint x="2409" y="628" as="targetPoint" />
            <Array as="points">
              <mxPoint x="2409" y="748" />
            </Array>
          </mxGeometry>
        </mxCell>
        <mxCell id="5_HbVF1pgU51whAzFdLB-47" value="" style="endArrow=none;html=1;rounded=0;fontSize=20;exitX=0;exitY=0.402;exitDx=0;exitDy=0;exitPerimeter=0;" parent="1" source="5_HbVF1pgU51whAzFdLB-50" edge="1">
          <mxGeometry width="50" height="50" relative="1" as="geometry">
            <mxPoint x="2449" y="961.75" as="sourcePoint" />
            <mxPoint x="2409" y="748" as="targetPoint" />
            <Array as="points">
              <mxPoint x="2409" y="962" />
            </Array>
          </mxGeometry>
        </mxCell>
        <mxCell id="5_HbVF1pgU51whAzFdLB-48" value="" style="group" parent="1" vertex="1" connectable="0">
          <mxGeometry x="2448" y="879" width="240" height="150" as="geometry" />
        </mxCell>
        <mxCell id="5_HbVF1pgU51whAzFdLB-49" value="" style="rounded=1;whiteSpace=wrap;html=1;strokeWidth=1;perimeterSpacing=0;fillColor=none;container=0;" parent="5_HbVF1pgU51whAzFdLB-48" vertex="1">
          <mxGeometry width="239.99999999999997" height="150" as="geometry" />
        </mxCell>
        <mxCell id="5_HbVF1pgU51whAzFdLB-50" value="изменить статус сценария" style="text;html=1;strokeColor=none;fillColor=none;align=center;verticalAlign=middle;whiteSpace=wrap;rounded=0;strokeWidth=1;fontSize=22;" parent="5_HbVF1pgU51whAzFdLB-48" vertex="1">
          <mxGeometry y="37.5" width="239.99999999999997" height="112.5" as="geometry" />
        </mxCell>
        <mxCell id="5_HbVF1pgU51whAzFdLB-51" value="" style="endArrow=none;html=1;rounded=0;" parent="5_HbVF1pgU51whAzFdLB-48" edge="1">
          <mxGeometry width="50" height="50" relative="1" as="geometry">
            <mxPoint y="37.5" as="sourcePoint" />
            <mxPoint x="239.99999999999997" y="37.5" as="targetPoint" />
          </mxGeometry>
        </mxCell>
        <mxCell id="5_HbVF1pgU51whAzFdLB-52" value="16" style="text;html=1;strokeColor=none;fillColor=none;align=center;verticalAlign=middle;whiteSpace=wrap;rounded=0;strokeWidth=1;fontSize=20;" parent="5_HbVF1pgU51whAzFdLB-48" vertex="1">
          <mxGeometry x="20" width="199.99999999999997" height="37.5" as="geometry" />
        </mxCell>
        <mxCell id="5_HbVF1pgU51whAzFdLB-54" value="" style="group" parent="1" vertex="1" connectable="0">
          <mxGeometry x="1401" y="878" width="240" height="150" as="geometry" />
        </mxCell>
        <mxCell id="5_HbVF1pgU51whAzFdLB-55" value="" style="rounded=1;whiteSpace=wrap;html=1;strokeWidth=1;perimeterSpacing=0;fillColor=none;container=0;" parent="5_HbVF1pgU51whAzFdLB-54" vertex="1">
          <mxGeometry width="239.99999999999997" height="150" as="geometry" />
        </mxCell>
        <mxCell id="5_HbVF1pgU51whAzFdLB-56" value="Ввести данные устройства" style="text;html=1;strokeColor=none;fillColor=none;align=center;verticalAlign=middle;whiteSpace=wrap;rounded=0;strokeWidth=1;fontSize=22;" parent="5_HbVF1pgU51whAzFdLB-54" vertex="1">
          <mxGeometry y="37.5" width="239.99999999999997" height="112.5" as="geometry" />
        </mxCell>
        <mxCell id="5_HbVF1pgU51whAzFdLB-57" value="" style="endArrow=none;html=1;rounded=0;" parent="5_HbVF1pgU51whAzFdLB-54" edge="1">
          <mxGeometry width="50" height="50" relative="1" as="geometry">
            <mxPoint y="37.5" as="sourcePoint" />
            <mxPoint x="239.99999999999997" y="37.5" as="targetPoint" />
          </mxGeometry>
        </mxCell>
        <mxCell id="5_HbVF1pgU51whAzFdLB-58" value="12" style="text;html=1;strokeColor=none;fillColor=none;align=center;verticalAlign=middle;whiteSpace=wrap;rounded=0;strokeWidth=1;fontSize=20;" parent="5_HbVF1pgU51whAzFdLB-54" vertex="1">
          <mxGeometry x="20" width="199.99999999999997" height="37.5" as="geometry" />
        </mxCell>
        <mxCell id="5_HbVF1pgU51whAzFdLB-59" value="" style="group" parent="1" vertex="1" connectable="0">
          <mxGeometry x="1934" y="669" width="240" height="150" as="geometry" />
        </mxCell>
        <mxCell id="5_HbVF1pgU51whAzFdLB-60" value="" style="rounded=1;whiteSpace=wrap;html=1;strokeWidth=1;perimeterSpacing=0;fillColor=none;container=0;" parent="5_HbVF1pgU51whAzFdLB-59" vertex="1">
          <mxGeometry width="239.99999999999997" height="150" as="geometry" />
        </mxCell>
        <mxCell id="5_HbVF1pgU51whAzFdLB-61" value="Ввести данные комнаты" style="text;html=1;strokeColor=none;fillColor=none;align=center;verticalAlign=middle;whiteSpace=wrap;rounded=0;strokeWidth=1;fontSize=22;" parent="5_HbVF1pgU51whAzFdLB-59" vertex="1">
          <mxGeometry y="37.5" width="239.99999999999997" height="112.5" as="geometry" />
        </mxCell>
        <mxCell id="5_HbVF1pgU51whAzFdLB-62" value="" style="endArrow=none;html=1;rounded=0;" parent="5_HbVF1pgU51whAzFdLB-59" edge="1">
          <mxGeometry width="50" height="50" relative="1" as="geometry">
            <mxPoint y="37.5" as="sourcePoint" />
            <mxPoint x="239.99999999999997" y="37.5" as="targetPoint" />
          </mxGeometry>
        </mxCell>
        <mxCell id="5_HbVF1pgU51whAzFdLB-63" value="13" style="text;html=1;strokeColor=none;fillColor=none;align=center;verticalAlign=middle;whiteSpace=wrap;rounded=0;strokeWidth=1;fontSize=20;" parent="5_HbVF1pgU51whAzFdLB-59" vertex="1">
          <mxGeometry x="20" width="199.99999999999997" height="37.5" as="geometry" />
        </mxCell>
        <mxCell id="5_HbVF1pgU51whAzFdLB-64" value="" style="group" parent="1" vertex="1" connectable="0">
          <mxGeometry x="2447" y="673" width="240" height="150" as="geometry" />
        </mxCell>
        <mxCell id="5_HbVF1pgU51whAzFdLB-65" value="" style="rounded=1;whiteSpace=wrap;html=1;strokeWidth=1;perimeterSpacing=0;fillColor=none;container=0;" parent="5_HbVF1pgU51whAzFdLB-64" vertex="1">
          <mxGeometry width="239.99999999999997" height="150" as="geometry" />
        </mxCell>
        <mxCell id="5_HbVF1pgU51whAzFdLB-66" value="Ввести данные сценария" style="text;html=1;strokeColor=none;fillColor=none;align=center;verticalAlign=middle;whiteSpace=wrap;rounded=0;strokeWidth=1;fontSize=22;" parent="5_HbVF1pgU51whAzFdLB-64" vertex="1">
          <mxGeometry y="37.5" width="239.99999999999997" height="112.5" as="geometry" />
        </mxCell>
        <mxCell id="5_HbVF1pgU51whAzFdLB-67" value="" style="endArrow=none;html=1;rounded=0;" parent="5_HbVF1pgU51whAzFdLB-64" edge="1">
          <mxGeometry width="50" height="50" relative="1" as="geometry">
            <mxPoint y="37.5" as="sourcePoint" />
            <mxPoint x="239.99999999999997" y="37.5" as="targetPoint" />
          </mxGeometry>
        </mxCell>
        <mxCell id="5_HbVF1pgU51whAzFdLB-68" value="15" style="text;html=1;strokeColor=none;fillColor=none;align=center;verticalAlign=middle;whiteSpace=wrap;rounded=0;strokeWidth=1;fontSize=20;" parent="5_HbVF1pgU51whAzFdLB-64" vertex="1">
          <mxGeometry x="20" width="199.99999999999997" height="37.5" as="geometry" />
        </mxCell>
        <mxCell id="5_HbVF1pgU51whAzFdLB-69" value="" style="group" parent="1" vertex="1" connectable="0">
          <mxGeometry x="870" y="884" width="240" height="150" as="geometry" />
        </mxCell>
        <mxCell id="5_HbVF1pgU51whAzFdLB-70" value="" style="rounded=1;whiteSpace=wrap;html=1;strokeWidth=1;perimeterSpacing=0;fillColor=none;container=0;" parent="5_HbVF1pgU51whAzFdLB-69" vertex="1">
          <mxGeometry width="239.99999999999997" height="150" as="geometry" />
        </mxCell>
        <mxCell id="5_HbVF1pgU51whAzFdLB-71" value="ввести данные пользователя дома" style="text;html=1;strokeColor=none;fillColor=none;align=center;verticalAlign=middle;whiteSpace=wrap;rounded=0;strokeWidth=1;fontSize=22;" parent="5_HbVF1pgU51whAzFdLB-69" vertex="1">
          <mxGeometry y="37.5" width="239.99999999999997" height="112.5" as="geometry" />
        </mxCell>
        <mxCell id="5_HbVF1pgU51whAzFdLB-72" value="" style="endArrow=none;html=1;rounded=0;" parent="5_HbVF1pgU51whAzFdLB-69" edge="1">
          <mxGeometry width="50" height="50" relative="1" as="geometry">
            <mxPoint y="37.5" as="sourcePoint" />
            <mxPoint x="239.99999999999997" y="37.5" as="targetPoint" />
          </mxGeometry>
        </mxCell>
        <mxCell id="5_HbVF1pgU51whAzFdLB-73" value="10" style="text;html=1;strokeColor=none;fillColor=none;align=center;verticalAlign=middle;whiteSpace=wrap;rounded=0;strokeWidth=1;fontSize=20;" parent="5_HbVF1pgU51whAzFdLB-69" vertex="1">
          <mxGeometry x="20" width="199.99999999999997" height="37.5" as="geometry" />
        </mxCell>
        <mxCell id="5_HbVF1pgU51whAzFdLB-74" value="" style="endArrow=none;html=1;rounded=0;exitX=0.5;exitY=0;exitDx=0;exitDy=0;" parent="1" source="5_HbVF1pgU51whAzFdLB-12" edge="1">
          <mxGeometry width="50" height="50" relative="1" as="geometry">
            <mxPoint x="1640" y="345" as="sourcePoint" />
            <mxPoint x="870" y="287" as="targetPoint" />
            <Array as="points">
              <mxPoint x="1936" y="419" />
            </Array>
          </mxGeometry>
        </mxCell>
        <mxCell id="5_HbVF1pgU51whAzFdLB-75" value="" style="endArrow=none;html=1;rounded=0;entryX=0.5;entryY=0;entryDx=0;entryDy=0;" parent="1" target="5_HbVF1pgU51whAzFdLB-35" edge="1">
          <mxGeometry width="50" height="50" relative="1" as="geometry">
            <mxPoint x="870" y="287" as="sourcePoint" />
            <mxPoint x="1665" y="239" as="targetPoint" />
            <Array as="points">
              <mxPoint x="2449" y="434" />
            </Array>
          </mxGeometry>
        </mxCell>
      </root>
    </mxGraphModel>
  </diagram>
</mxfile>
